<svg width="35" height="35" viewBox="0 0 35 35" fill="none" xmlns="http://www.w3.org/2000/svg">
<path d="M19.0466 3.28125C18.6364 2.87116 18.0801 2.64078 17.5 2.64078C16.92 2.64078 16.3637 2.87116 15.9534 3.28125L1.41313 17.8194C1.31144 17.9211 1.23077 18.0418 1.17574 18.1747C1.1207 18.3075 1.09238 18.4499 1.09238 18.5937C1.09238 18.7376 1.1207 18.88 1.17574 19.0128C1.23077 19.1457 1.31144 19.2664 1.41313 19.3681C1.61851 19.5735 1.89706 19.6889 2.18751 19.6889C2.33132 19.6889 2.47373 19.6606 2.6066 19.6055C2.73946 19.5505 2.86019 19.4698 2.96188 19.3681L4.37501 17.9528V29.5312C4.37501 30.4015 4.72071 31.2361 5.33606 31.8514C5.95142 32.4668 6.78602 32.8125 7.65626 32.8125H27.3438C28.214 32.8125 29.0486 32.4668 29.664 31.8514C30.2793 31.2361 30.625 30.4015 30.625 29.5312V17.9528L32.0381 19.3681C32.2435 19.5735 32.5221 19.6889 32.8125 19.6889C33.103 19.6889 33.3815 19.5735 33.5869 19.3681C33.7923 19.1627 33.9076 18.8842 33.9076 18.5937C33.9076 18.3033 33.7923 18.0247 33.5869 17.8194L28.4375 12.6722V5.46875C28.4375 5.17867 28.3223 4.90047 28.1172 4.69535C27.912 4.49023 27.6338 4.375 27.3438 4.375H25.1563C24.8662 4.375 24.588 4.49023 24.3829 4.69535C24.1777 4.90047 24.0625 5.17867 24.0625 5.46875V8.29719L19.0466 3.28125ZM28.4375 15.7653V29.5312C28.4375 29.8213 28.3223 30.0995 28.1172 30.3046C27.912 30.5098 27.6338 30.625 27.3438 30.625H7.65626C7.36618 30.625 7.08798 30.5098 6.88286 30.3046C6.67774 30.0995 6.56251 29.8213 6.56251 29.5312V15.7653L17.5 4.82781L28.4375 15.7653Z" fill="white"/>
</svg>
