<svg width="35" height="35" viewBox="0 0 35 35" fill="none" xmlns="http://www.w3.org/2000/svg">
<path fill-rule="evenodd" clip-rule="evenodd" d="M13.125 17.5C13.125 17.7901 13.2402 18.0683 13.4454 18.2734C13.6505 18.4785 13.9287 18.5938 14.2188 18.5938H26.8909L22.1944 23.2881C21.989 23.4935 21.8736 23.7721 21.8736 24.0625C21.8736 24.3529 21.989 24.6315 22.1944 24.8369C22.3998 25.0423 22.6783 25.1576 22.9688 25.1576C23.2592 25.1576 23.5377 25.0423 23.7431 24.8369L30.3056 18.2744C30.4075 18.1728 30.4883 18.0521 30.5434 17.9192C30.5986 17.7863 30.627 17.6439 30.627 17.5C30.627 17.3561 30.5986 17.2137 30.5434 17.0808C30.4883 16.9479 30.4075 16.8272 30.3056 16.7256L23.7431 10.1631C23.5377 9.95775 23.2592 9.84237 22.9688 9.84237C22.6783 9.84237 22.3998 9.95775 22.1944 10.1631C21.989 10.3685 21.8736 10.6471 21.8736 10.9375C21.8736 11.2279 21.989 11.5065 22.1944 11.7119L26.8909 16.4062H14.2188C13.9287 16.4062 13.6505 16.5215 13.4454 16.7266C13.2402 16.9317 13.125 17.2099 13.125 17.5ZM7.65625 32.8125C7.36617 32.8125 7.08797 32.6973 6.88285 32.4921C6.67773 32.287 6.5625 32.0088 6.5625 31.7188V3.28125C6.5625 2.99117 6.67773 2.71297 6.88285 2.50785C7.08797 2.30273 7.36617 2.1875 7.65625 2.1875C7.94633 2.1875 8.22453 2.30273 8.42965 2.50785C8.63477 2.71297 8.75 2.99117 8.75 3.28125V31.7188C8.75 32.0088 8.63477 32.287 8.42965 32.4921C8.22453 32.6973 7.94633 32.8125 7.65625 32.8125Z" fill="white"/>
</svg>
